<?xml version="1.0" encoding="UTF-8" standalone="no"?>
<!DOCTYPE svg PUBLIC "-//W3C//DTD SVG 1.1//EN"
 "http://www.w3.org/Graphics/SVG/1.1/DTD/svg11.dtd">
<!-- Generated by graphviz version 2.36.0 (20140111.2315)
 -->
<!-- Title: name Pages: 1 -->
<svg width="196pt" height="146pt"
 viewBox="0.00 0.00 196.03 146.00" xmlns="http://www.w3.org/2000/svg" xmlns:xlink="http://www.w3.org/1999/xlink">
<g id="graph0" class="graph" transform="scale(1 1) rotate(0) translate(4 142)">
<title>name</title>
<!-- fat -->
<g id="node1" class="node"><title>fat</title>
<ellipse fill="none" stroke="black" cx="78.027" cy="-120" rx="29.3722" ry="18"/>
<text text-anchor="middle" x="78.027" y="-116.3" font-family="Times,serif" font-size="14.00">胖子</text>
</g>
<!-- arrow -->
<g id="node2" class="node"><title>arrow</title>
<ellipse fill="none" stroke="black" cx="78.027" cy="-18" rx="29.3722" ry="18"/>
<text text-anchor="middle" x="78.027" y="-14.3" font-family="Times,serif" font-size="14.00">弓箭</text>
</g>
<!-- fat&#45;&gt;arrow -->
<g id="edge1" class="edge"><title>fat:sw&#45;&gt;arrow:nw</title>
<path fill="none" stroke="black" d="M62.027,-103C43.161,-84.134 40.9501,-62.2371 55.3944,-42.6607"/>
<polygon fill="black" stroke="black" points="58.1275,-44.8511 62.027,-35 52.8354,-40.2692 58.1275,-44.8511"/>
<text text-anchor="middle" x="23" y="-72.5567" font-family="Times,serif" font-size="14.00"> &#160;(1, 5) &#160;</text>
</g>
<!-- fat&#45;&gt;arrow -->
<g id="edge2" class="edge"><title>fat&#45;&gt;arrow</title>
<path fill="none" stroke="black" d="M78.027,-101.581C78.027,-83.227 78.027,-54.4977 78.027,-36.2191"/>
</g>
<!-- arrow&#45;&gt;fat -->
<g id="edge3" class="edge"><title>arrow:ne&#45;&gt;fat:se</title>
<path fill="none" stroke="black" d="M94.027,-35C112.893,-53.866 115.104,-75.7629 100.66,-95.3393"/>
<polygon fill="black" stroke="black" points="97.9265,-93.1489 94.027,-103 103.219,-97.7308 97.9265,-93.1489"/>
<text text-anchor="middle" x="87.054" y="-73.0433" font-family="Times,serif" font-size="14.00"> &#160;(1, 1) &#160;</text>
</g>
<!-- king -->
<g id="node3" class="node"><title>king</title>
<ellipse fill="none" stroke="black" cx="157.027" cy="-120" rx="27" ry="18"/>
<text text-anchor="middle" x="157.027" y="-116.3" font-family="Times,serif" font-size="14.00">king</text>
</g>
<!-- quene -->
<g id="node4" class="node"><title>quene</title>
<ellipse fill="none" stroke="black" cx="157.027" cy="-18" rx="31.2735" ry="18"/>
<text text-anchor="middle" x="157.027" y="-14.3" font-family="Times,serif" font-size="14.00">quene</text>
</g>
<!-- king&#45;&gt;quene -->
<g id="edge4" class="edge"><title>king&#45;&gt;quene</title>
<path fill="none" stroke="black" d="M157.027,-101.581C157.027,-86.3816 157.027,-64.0669 157.027,-46.4644"/>
<polygon fill="black" stroke="black" points="160.527,-46.219 157.027,-36.2191 153.527,-46.2191 160.527,-46.219"/>
<text text-anchor="middle" x="171.527" y="-72.8" font-family="Times,serif" font-size="14.00">国王</text>
<text text-anchor="middle" x="171.527" y="-57.8" font-family="Times,serif" font-size="14.00">女王</text>
</g>
</g>
</svg>
