<?xml version="1.0" encoding="UTF-8" standalone="no"?>
<!DOCTYPE svg PUBLIC "-//W3C//DTD SVG 1.1//EN"
 "http://www.w3.org/Graphics/SVG/1.1/DTD/svg11.dtd">
<!-- Generated by graphviz version 2.36.0 (20140111.2315)
 -->
<!-- Title: G Pages: 1 -->
<svg width="206pt" height="188pt"
 viewBox="0.00 0.00 206.00 188.00" xmlns="http://www.w3.org/2000/svg" xmlns:xlink="http://www.w3.org/1999/xlink">
<g id="graph0" class="graph" transform="scale(1 1) rotate(0) translate(4 184)">
<title>G</title>
<polygon fill="white" stroke="none" points="-4,4 -4,-184 202,-184 202,4 -4,4"/>
<!-- c0r0 -->
<g id="node1" class="node"><title>c0r0</title>
<ellipse fill="none" stroke="black" cx="27" cy="-162" rx="27" ry="18"/>
<text text-anchor="middle" x="27" y="-158.3" font-family="Times,serif" font-size="14.00">c0r0</text>
</g>
<!-- c0r1 -->
<g id="node2" class="node"><title>c0r1</title>
<ellipse fill="none" stroke="black" cx="27" cy="-90" rx="27" ry="18"/>
<text text-anchor="middle" x="27" y="-86.3" font-family="Times,serif" font-size="14.00">c0r1</text>
</g>
<!-- c0r0&#45;&gt;c0r1 -->
<g id="edge1" class="edge"><title>c0r0&#45;&gt;c0r1</title>
<path fill="none" stroke="black" d="M27,-143.697C27,-135.983 27,-126.712 27,-118.112"/>
<polygon fill="black" stroke="black" points="30.5001,-118.104 27,-108.104 23.5001,-118.104 30.5001,-118.104"/>
</g>
<!-- c1r0 -->
<g id="node4" class="node"><title>c1r0</title>
<ellipse fill="none" stroke="black" cx="99" cy="-162" rx="27" ry="18"/>
<text text-anchor="middle" x="99" y="-158.3" font-family="Times,serif" font-size="14.00">c1r0</text>
</g>
<!-- c0r0&#45;&gt;c1r0 -->
<g id="edge7" class="edge"><title>c0r0&#45;&gt;c1r0</title>
<path fill="none" stroke="red" d="M54,-162C56.6147,-162 59.2295,-162 61.8442,-162"/>
<polygon fill="red" stroke="red" points="61.9297,-165.5 71.9297,-162 61.9297,-158.5 61.9297,-165.5"/>
</g>
<!-- c0r2 -->
<g id="node3" class="node"><title>c0r2</title>
<ellipse fill="none" stroke="black" cx="27" cy="-18" rx="27" ry="18"/>
<text text-anchor="middle" x="27" y="-14.3" font-family="Times,serif" font-size="14.00">c0r2</text>
</g>
<!-- c0r1&#45;&gt;c0r2 -->
<g id="edge2" class="edge"><title>c0r1&#45;&gt;c0r2</title>
<path fill="none" stroke="black" d="M27,-71.6966C27,-63.9827 27,-54.7125 27,-46.1124"/>
<polygon fill="black" stroke="black" points="30.5001,-46.1043 27,-36.1043 23.5001,-46.1044 30.5001,-46.1043"/>
</g>
<!-- c1r1 -->
<g id="node5" class="node"><title>c1r1</title>
<ellipse fill="none" stroke="black" cx="99" cy="-90" rx="27" ry="18"/>
<text text-anchor="middle" x="99" y="-86.3" font-family="Times,serif" font-size="14.00">c1r1</text>
</g>
<!-- c0r1&#45;&gt;c1r1 -->
<g id="edge9" class="edge"><title>c0r1&#45;&gt;c1r1</title>
<path fill="none" stroke="red" d="M54,-90C56.6147,-90 59.2295,-90 61.8442,-90"/>
<polygon fill="red" stroke="red" points="61.9297,-93.5001 71.9297,-90 61.9297,-86.5001 61.9297,-93.5001"/>
</g>
<!-- c1r2 -->
<g id="node6" class="node"><title>c1r2</title>
<ellipse fill="none" stroke="black" cx="99" cy="-18" rx="27" ry="18"/>
<text text-anchor="middle" x="99" y="-14.3" font-family="Times,serif" font-size="14.00">c1r2</text>
</g>
<!-- c0r2&#45;&gt;c1r2 -->
<g id="edge11" class="edge"><title>c0r2&#45;&gt;c1r2</title>
<path fill="none" stroke="red" d="M54,-18C56.6147,-18 59.2295,-18 61.8442,-18"/>
<polygon fill="red" stroke="red" points="61.9297,-21.5001 71.9297,-18 61.9297,-14.5001 61.9297,-21.5001"/>
</g>
<!-- c1r0&#45;&gt;c1r1 -->
<g id="edge3" class="edge"><title>c1r0&#45;&gt;c1r1</title>
<path fill="none" stroke="black" d="M99,-143.697C99,-135.983 99,-126.712 99,-118.112"/>
<polygon fill="black" stroke="black" points="102.5,-118.104 99,-108.104 95.5001,-118.104 102.5,-118.104"/>
</g>
<!-- c2r0 -->
<g id="node7" class="node"><title>c2r0</title>
<ellipse fill="none" stroke="black" cx="171" cy="-162" rx="27" ry="18"/>
<text text-anchor="middle" x="171" y="-158.3" font-family="Times,serif" font-size="14.00">c2r0</text>
</g>
<!-- c1r0&#45;&gt;c2r0 -->
<g id="edge8" class="edge"><title>c1r0&#45;&gt;c2r0</title>
<path fill="none" stroke="red" d="M126,-162C128.615,-162 131.229,-162 133.844,-162"/>
<polygon fill="red" stroke="red" points="133.93,-165.5 143.93,-162 133.93,-158.5 133.93,-165.5"/>
</g>
<!-- c1r1&#45;&gt;c1r2 -->
<g id="edge4" class="edge"><title>c1r1&#45;&gt;c1r2</title>
<path fill="none" stroke="black" d="M99,-71.6966C99,-63.9827 99,-54.7125 99,-46.1124"/>
<polygon fill="black" stroke="black" points="102.5,-46.1043 99,-36.1043 95.5001,-46.1044 102.5,-46.1043"/>
</g>
<!-- c2r1 -->
<g id="node8" class="node"><title>c2r1</title>
<ellipse fill="none" stroke="black" cx="171" cy="-90" rx="27" ry="18"/>
<text text-anchor="middle" x="171" y="-86.3" font-family="Times,serif" font-size="14.00">c2r1</text>
</g>
<!-- c1r1&#45;&gt;c2r1 -->
<g id="edge10" class="edge"><title>c1r1&#45;&gt;c2r1</title>
<path fill="none" stroke="red" d="M126,-90C128.615,-90 131.229,-90 133.844,-90"/>
<polygon fill="red" stroke="red" points="133.93,-93.5001 143.93,-90 133.93,-86.5001 133.93,-93.5001"/>
</g>
<!-- c2r2 -->
<g id="node9" class="node"><title>c2r2</title>
<ellipse fill="none" stroke="black" cx="171" cy="-18" rx="27" ry="18"/>
<text text-anchor="middle" x="171" y="-14.3" font-family="Times,serif" font-size="14.00">c2r2</text>
</g>
<!-- c1r2&#45;&gt;c2r2 -->
<g id="edge12" class="edge"><title>c1r2&#45;&gt;c2r2</title>
<path fill="none" stroke="red" d="M126,-18C128.615,-18 131.229,-18 133.844,-18"/>
<polygon fill="red" stroke="red" points="133.93,-21.5001 143.93,-18 133.93,-14.5001 133.93,-21.5001"/>
</g>
<!-- c2r0&#45;&gt;c2r1 -->
<g id="edge5" class="edge"><title>c2r0&#45;&gt;c2r1</title>
<path fill="none" stroke="black" d="M171,-143.697C171,-135.983 171,-126.712 171,-118.112"/>
<polygon fill="black" stroke="black" points="174.5,-118.104 171,-108.104 167.5,-118.104 174.5,-118.104"/>
</g>
<!-- c2r1&#45;&gt;c2r2 -->
<g id="edge6" class="edge"><title>c2r1&#45;&gt;c2r2</title>
<path fill="none" stroke="black" d="M171,-71.6966C171,-63.9827 171,-54.7125 171,-46.1124"/>
<polygon fill="black" stroke="black" points="174.5,-46.1043 171,-36.1043 167.5,-46.1044 174.5,-46.1043"/>
</g>
</g>
</svg>
