<?xml version="1.0" encoding="UTF-8" standalone="no"?>
<!DOCTYPE svg PUBLIC "-//W3C//DTD SVG 1.1//EN"
 "http://www.w3.org/Graphics/SVG/1.1/DTD/svg11.dtd">
<!-- Generated by graphviz version 2.36.0 (20140111.2315)
 -->
<!-- Title: %3 Pages: 1 -->
<svg width="756pt" height="765pt"
 viewBox="0.00 0.00 755.57 765.37" xmlns="http://www.w3.org/2000/svg" xmlns:xlink="http://www.w3.org/1999/xlink">
<g id="graph0" class="graph" transform="scale(1 1) rotate(0) translate(4 761.373)">
<title>%3</title>
<polygon fill="white" stroke="none" points="-4,4 -4,-761.373 751.572,-761.373 751.572,4 -4,4"/>
<!-- 0 -->
<g id="node1" class="node"><title>0</title>
<ellipse fill="#000000" stroke="black" cx="381.032" cy="-387.687" rx="18" ry="18"/>
<text text-anchor="middle" x="381.032" y="-383.987" font-family="Times,serif" font-size="14.00" fill="#ffffff">0</text>
</g>
<!-- 0&#45;&#45;0 -->
<g id="edge1" class="edge"><title>0&#45;&#45;0</title>
<path fill="none" stroke="black" d="M398.069,-394.066C407.889,-395.368 417.032,-393.241 417.032,-387.687 417.032,-382.132 407.889,-380.006 398.069,-381.307"/>
</g>
<!-- 1 -->
<g id="node2" class="node"><title>1</title>
<ellipse fill="#100000" stroke="black" cx="725.443" cy="-387.687" rx="20.5" ry="20.5"/>
<text text-anchor="middle" x="725.443" y="-383.987" font-family="Times,serif" font-size="14.00" fill="#ffffff">1</text>
</g>
<!-- 0&#45;&#45;1 -->
<g id="edge2" class="edge"><title>0&#45;&#45;1</title>
<path fill="none" stroke="black" d="M399.064,-387.687C457.611,-387.687 642.191,-387.687 704.593,-387.687"/>
</g>
<!-- 2 -->
<g id="node3" class="node"><title>2</title>
<ellipse fill="#200000" stroke="black" cx="706.421" cy="-500.562" rx="22.5" ry="22.5"/>
<text text-anchor="middle" x="706.421" y="-496.862" font-family="Times,serif" font-size="14.00" fill="#ffffff">2</text>
</g>
<!-- 0&#45;&#45;2 -->
<g id="edge3" class="edge"><title>0&#45;&#45;2</title>
<path fill="none" stroke="black" d="M398.068,-393.596C452.858,-412.603 624.48,-472.137 685.019,-493.138"/>
</g>
<!-- 3 -->
<g id="node4" class="node"><title>3</title>
<ellipse fill="#300000" stroke="black" cx="648.647" cy="-604.484" rx="25" ry="25"/>
<text text-anchor="middle" x="648.647" y="-600.784" font-family="Times,serif" font-size="14.00" fill="#ffffff">3</text>
</g>
<!-- 0&#45;&#45;3 -->
<g id="edge4" class="edge"><title>0&#45;&#45;3</title>
<path fill="none" stroke="black" d="M395.043,-399.037C439.46,-435.02 577.232,-546.63 628.851,-588.446"/>
</g>
<!-- 4 -->
<g id="node5" class="node"><title>4</title>
<ellipse fill="#400000" stroke="black" cx="555.11" cy="-684.866" rx="27" ry="27"/>
<text text-anchor="middle" x="555.11" y="-681.166" font-family="Times,serif" font-size="14.00" fill="#ffffff">4</text>
</g>
<!-- 0&#45;&#45;4 -->
<g id="edge5" class="edge"><title>0&#45;&#45;4</title>
<path fill="none" stroke="black" d="M390.146,-403.246C418.758,-452.092 506.926,-602.608 541.242,-661.191"/>
</g>
<!-- 5 -->
<g id="node6" class="node"><title>5</title>
<ellipse fill="#500000" stroke="black" cx="434.811" cy="-727.873" rx="29.5" ry="29.5"/>
<text text-anchor="middle" x="434.811" y="-724.173" font-family="Times,serif" font-size="14.00" fill="#ffffff">5</text>
</g>
<!-- 0&#45;&#45;5 -->
<g id="edge6" class="edge"><title>0&#45;&#45;5</title>
<path fill="none" stroke="black" d="M383.847,-405.498C392.589,-460.797 419.328,-629.934 430.17,-698.52"/>
</g>
<!-- 6 -->
<g id="node7" class="node"><title>6</title>
<ellipse fill="#600000" stroke="black" cx="302.722" cy="-723.077" rx="31.5" ry="31.5"/>
<text text-anchor="middle" x="302.722" y="-719.377" font-family="Times,serif" font-size="14.00" fill="#ffffff">6</text>
</g>
<!-- 0&#45;&#45;6 -->
<g id="edge7" class="edge"><title>0&#45;&#45;6</title>
<path fill="none" stroke="black" d="M376.932,-405.246C364.312,-459.295 325.939,-623.641 309.894,-692.36"/>
</g>
<!-- 7 -->
<g id="node8" class="node"><title>7</title>
<ellipse fill="#700000" stroke="black" cx="178.511" cy="-666.262" rx="34" ry="34"/>
<text text-anchor="middle" x="178.511" y="-662.562" font-family="Times,serif" font-size="14.00" fill="#ffffff">7</text>
</g>
<!-- 0&#45;&#45;7 -->
<g id="edge8" class="edge"><title>0&#45;&#45;7</title>
<path fill="none" stroke="black" d="M370.428,-402.272C338.199,-446.605 241.018,-580.281 198.638,-638.577"/>
</g>
<!-- 8 -->
<g id="node9" class="node"><title>8</title>
<ellipse fill="#800000" stroke="black" cx="83.8518" cy="-561.765" rx="36" ry="36"/>
<text text-anchor="middle" x="83.8518" y="-558.065" font-family="Times,serif" font-size="14.00" fill="#ffffff">8</text>
</g>
<!-- 0&#45;&#45;8 -->
<g id="edge9" class="edge"><title>0&#45;&#45;8</title>
<path fill="none" stroke="black" d="M365.472,-396.801C318.657,-424.224 178.447,-506.355 115.295,-543.347"/>
</g>
<!-- 9 -->
<g id="node10" class="node"><title>9</title>
<ellipse fill="#900000" stroke="black" cx="38.5" cy="-423.621" rx="38.5" ry="38.5"/>
<text text-anchor="middle" x="38.5" y="-419.921" font-family="Times,serif" font-size="14.00" fill="#ffffff">9</text>
</g>
<!-- 0&#45;&#45;9 -->
<g id="edge10" class="edge"><title>0&#45;&#45;9</title>
<path fill="none" stroke="black" d="M363.098,-389.568C309.688,-395.171 150.818,-411.838 76.9974,-419.582"/>
</g>
<!-- 10 -->
<g id="node11" class="node"><title>10</title>
<ellipse fill="#a00000" stroke="black" cx="55.642" cy="-274.812" rx="40.5" ry="40.5"/>
<text text-anchor="middle" x="55.642" y="-271.112" font-family="Times,serif" font-size="14.00" fill="#ffffff">10</text>
</g>
<!-- 0&#45;&#45;10 -->
<g id="edge11" class="edge"><title>0&#45;&#45;10</title>
<path fill="none" stroke="black" d="M363.995,-381.777C313.716,-364.336 165.053,-312.766 94.1301,-288.163"/>
</g>
<!-- 11 -->
<g id="node12" class="node"><title>11</title>
<ellipse fill="#b00000" stroke="black" cx="137.496" cy="-144.151" rx="43" ry="43"/>
<text text-anchor="middle" x="137.496" y="-140.451" font-family="Times,serif" font-size="14.00" fill="#ffffff">11</text>
</g>
<!-- 0&#45;&#45;11 -->
<g id="edge12" class="edge"><title>0&#45;&#45;11</title>
<path fill="none" stroke="black" d="M368.281,-374.936C331.09,-337.746 221.978,-228.634 168.19,-174.845"/>
</g>
<!-- 12 -->
<g id="node13" class="node"><title>12</title>
<ellipse fill="#c00000" stroke="black" cx="272.418" cy="-60.8501" rx="45" ry="45"/>
<text text-anchor="middle" x="272.418" y="-57.1501" font-family="Times,serif" font-size="14.00" fill="#ffffff">12</text>
</g>
<!-- 0&#45;&#45;12 -->
<g id="edge13" class="edge"><title>0&#45;&#45;12</title>
<path fill="none" stroke="black" d="M375.345,-370.575C358.889,-321.057 310.862,-176.536 286.679,-103.766"/>
</g>
<!-- 13 -->
<g id="node14" class="node"><title>13</title>
<ellipse fill="#d00000" stroke="black" cx="434.811" cy="-47.5" rx="47.5" ry="47.5"/>
<text text-anchor="middle" x="434.811" y="-43.8" font-family="Times,serif" font-size="14.00" fill="#ffffff">13</text>
</g>
<!-- 0&#45;&#45;13 -->
<g id="edge14" class="edge"><title>0&#45;&#45;13</title>
<path fill="none" stroke="black" d="M383.847,-369.876C391.909,-318.883 415.272,-171.092 427.364,-94.6046"/>
</g>
<!-- 14 -->
<g id="node15" class="node"><title>14</title>
<ellipse fill="#e00000" stroke="black" cx="588.773" cy="-112.982" rx="49.5" ry="49.5"/>
<text text-anchor="middle" x="588.773" y="-109.282" font-family="Times,serif" font-size="14.00" fill="#ffffff">14</text>
</g>
<!-- 0&#45;&#45;14 -->
<g id="edge15" class="edge"><title>0&#45;&#45;14</title>
<path fill="none" stroke="black" d="M391.908,-373.304C422.798,-332.458 511.852,-214.699 558.873,-152.521"/>
</g>
<!-- 15 -->
<g id="node16" class="node"><title>15</title>
<ellipse fill="#f00000" stroke="black" cx="695.572" cy="-247.389" rx="52" ry="52"/>
<text text-anchor="middle" x="695.572" y="-243.689" font-family="Times,serif" font-size="14.00" fill="#ffffff">15</text>
</g>
<!-- 0&#45;&#45;15 -->
<g id="edge16" class="edge"><title>0&#45;&#45;15</title>
<path fill="none" stroke="black" d="M397.5,-380.341C443.764,-359.706 576.2,-300.634 647.968,-268.622"/>
</g>
</g>
</svg>
