<?xml version="1.0" encoding="UTF-8" standalone="no"?>
<!DOCTYPE svg PUBLIC "-//W3C//DTD SVG 1.1//EN"
 "http://www.w3.org/Graphics/SVG/1.1/DTD/svg11.dtd">
<!-- Generated by graphviz version 2.36.0 (20140111.2315)
 -->
<!-- Title: name Pages: 1 -->
<svg width="234pt" height="404pt"
 viewBox="0.00 0.00 234.00 404.00" xmlns="http://www.w3.org/2000/svg" xmlns:xlink="http://www.w3.org/1999/xlink">
<g id="graph0" class="graph" transform="scale(1 1) rotate(0) translate(4 400)">
<title>name</title>
<!-- node 1 -->
<g id="node1" class="node"><title>node 1</title>
<ellipse fill="#5d8aa8" stroke="#5d8aa8" cx="125" cy="-306" rx="34.1708" ry="18"/>
<text text-anchor="middle" x="125" y="-302.3" font-family="Times,serif" font-size="14.00">node 1</text>
</g>
<!-- node 3 -->
<g id="node2" class="node"><title>node 3</title>
<ellipse fill="#5d8aa8" stroke="#5d8aa8" cx="185" cy="-234" rx="34.1708" ry="18"/>
<text text-anchor="middle" x="185" y="-230.3" font-family="Times,serif" font-size="14.00">node 3</text>
</g>
<!-- node 1&#45;&gt;node 3 -->
<g id="edge1" class="edge"><title>node 1&#45;&gt;node 3</title>
<path fill="none" stroke="#004225" d="M138.615,-289.116C147.13,-279.181 158.186,-266.283 167.368,-255.571"/>
<polygon fill="#004225" stroke="#004225" points="169.129,-256.743 171.439,-250.821 165.94,-254.01 169.129,-256.743"/>
</g>
<!-- node 2 -->
<g id="node5" class="node"><title>node 2</title>
<ellipse fill="#5d8aa8" stroke="#5d8aa8" cx="49" cy="-234" rx="34.1708" ry="18"/>
<text text-anchor="middle" x="49" y="-230.3" font-family="Times,serif" font-size="14.00">node 2</text>
</g>
<!-- node 1&#45;&gt;node 2 -->
<g id="edge3" class="edge"><title>node 1&#45;&gt;node 2</title>
<path fill="none" stroke="#004225" d="M108.509,-289.811C97.1782,-279.375 82.0428,-265.434 69.8719,-254.224"/>
<polygon fill="#004225" stroke="#004225" points="71.0336,-252.439 65.1976,-249.919 68.1882,-255.528 71.0336,-252.439"/>
</g>
<!-- node 4 -->
<g id="node6" class="node"><title>node 4</title>
<ellipse fill="#5d8aa8" stroke="#5d8aa8" cx="105" cy="-162" rx="34.1708" ry="18"/>
<text text-anchor="middle" x="105" y="-158.3" font-family="Times,serif" font-size="14.00">node 4</text>
</g>
<!-- node 1&#45;&gt;node 4 -->
<g id="edge10" class="edge"><title>node 1&#45;&gt;node 4</title>
<path fill="none" stroke="black" d="M122.588,-287.871C119.179,-263.67 112.917,-219.211 108.858,-190.393"/>
<polygon fill="black" stroke="black" points="112.282,-189.603 107.421,-180.189 105.35,-190.58 112.282,-189.603"/>
</g>
<!-- node 5 -->
<g id="node3" class="node"><title>node 5</title>
<ellipse fill="#5d8aa8" stroke="#5d8aa8" cx="192" cy="-162" rx="34.1708" ry="18"/>
<text text-anchor="middle" x="192" y="-158.3" font-family="Times,serif" font-size="14.00">node 5</text>
</g>
<!-- node 3&#45;&gt;node 5 -->
<g id="edge6" class="edge"><title>node 3&#45;&gt;node 5</title>
<path fill="none" stroke="#fbec5d" stroke-width="3" d="M186.73,-215.697C187.442,-208.576 188.287,-200.129 189.089,-192.108"/>
<polygon fill="#fbec5d" stroke="#fbec5d" stroke-width="3" points="193.275,-192.463 190.29,-180.104 184.916,-191.627 193.275,-192.463"/>
</g>
<!-- node 7 -->
<g id="node4" class="node"><title>node 7</title>
<ellipse fill="#5d8aa8" stroke="#5d8aa8" cx="192" cy="-90" rx="34.1708" ry="18"/>
<text text-anchor="middle" x="192" y="-86.3" font-family="Times,serif" font-size="14.00">node 7</text>
</g>
<!-- node 5&#45;&gt;node 7 -->
<g id="edge2" class="edge"><title>node 5&#45;&gt;node 7</title>
<path fill="none" stroke="#004225" d="M192,-143.697C192,-134.796 192,-123.823 192,-114.199"/>
<polygon fill="#004225" stroke="#004225" points="194.1,-114.104 192,-108.104 189.9,-114.104 194.1,-114.104"/>
</g>
<!-- node 2&#45;&gt;node 4 -->
<g id="edge4" class="edge"><title>node 2&#45;&gt;node 4</title>
<path fill="none" stroke="#fbec5d" stroke-width="3" d="M61.7073,-217.116C68.5092,-208.613 77.048,-197.94 84.7408,-188.324"/>
<polygon fill="#fbec5d" stroke="#fbec5d" stroke-width="3" points="88.1263,-190.815 92.343,-178.821 81.567,-185.568 88.1263,-190.815"/>
</g>
<!-- node 6 -->
<g id="node7" class="node"><title>node 6</title>
<ellipse fill="#5d8aa8" stroke="#5d8aa8" cx="74" cy="-90" rx="34.1708" ry="18"/>
<text text-anchor="middle" x="74" y="-86.3" font-family="Times,serif" font-size="14.00">node 6</text>
</g>
<!-- node 2&#45;&gt;node 6 -->
<g id="edge11" class="edge"><title>node 2&#45;&gt;node 6</title>
<path fill="none" stroke="black" d="M51.1005,-215.873C53.3979,-197.905 57.3753,-168.871 62,-144 63.5765,-135.522 65.5571,-126.341 67.4522,-118.04"/>
<polygon fill="black" stroke="black" points="70.904,-118.65 69.7701,-108.116 64.0874,-117.058 70.904,-118.65"/>
</g>
<!-- node 4&#45;&gt;node 6 -->
<g id="edge5" class="edge"><title>node 4&#45;&gt;node 6</title>
<path fill="none" stroke="#fbec5d" stroke-width="3" d="M97.6534,-144.411C94.3053,-136.851 90.2476,-127.688 86.4453,-119.102"/>
<polygon fill="#fbec5d" stroke="#fbec5d" stroke-width="3" points="90.2086,-117.228 81.5092,-107.956 82.5281,-120.629 90.2086,-117.228"/>
</g>
<!-- node 8 -->
<g id="node8" class="node"><title>node 8</title>
<ellipse fill="#5d8aa8" stroke="#5d8aa8" cx="74" cy="-18" rx="34.1708" ry="18"/>
<text text-anchor="middle" x="74" y="-14.3" font-family="Times,serif" font-size="14.00">node 8</text>
</g>
<!-- node 6&#45;&gt;node 8 -->
<g id="edge7" class="edge"><title>node 6&#45;&gt;node 8</title>
<path fill="none" stroke="#fbec5d" stroke-width="3" d="M74,-71.6966C74,-64.5761 74,-56.1294 74,-48.1079"/>
<polygon fill="#fbec5d" stroke="#fbec5d" stroke-width="3" points="78.2001,-48.1043 74,-36.1043 69.8001,-48.1044 78.2001,-48.1043"/>
</g>
<!-- begin -->
<g id="node9" class="node"><title>begin</title>
<ellipse fill="#5d8aa8" stroke="#5d8aa8" cx="125" cy="-378" rx="30.3206" ry="18"/>
<text text-anchor="middle" x="125" y="-374.3" font-family="Times,serif" font-size="14.00">begin</text>
</g>
<!-- begin&#45;&gt;node 1 -->
<g id="edge8" class="edge"><title>begin&#45;&gt;node 1</title>
<path fill="none" stroke="black" d="M125,-359.697C125,-351.983 125,-342.712 125,-334.112"/>
<polygon fill="black" stroke="black" points="128.5,-334.104 125,-324.104 121.5,-334.104 128.5,-334.104"/>
</g>
<!-- start -->
<g id="node10" class="node"><title>start</title>
<polygon fill="#5d8aa8" stroke="#5d8aa8" points="36,-324 -0.153332,-306 36,-288 72.1533,-306 36,-324"/>
<text text-anchor="middle" x="36" y="-302.3" font-family="Times,serif" font-size="14.00">start</text>
</g>
<!-- start&#45;&gt;node 2 -->
<g id="edge9" class="edge"><title>start&#45;&gt;node 2</title>
<path fill="none" stroke="black" d="M38.9499,-289.116C40.4304,-281.144 42.2653,-271.264 43.9604,-262.136"/>
<polygon fill="black" stroke="black" points="47.4038,-262.763 45.7886,-252.292 40.5214,-261.485 47.4038,-262.763"/>
</g>
</g>
</svg>
