<?xml version="1.0" encoding="UTF-8" standalone="no"?>
<!DOCTYPE svg PUBLIC "-//W3C//DTD SVG 1.1//EN"
 "http://www.w3.org/Graphics/SVG/1.1/DTD/svg11.dtd">
<!-- Generated by graphviz version 2.36.0 (20140111.2315)
 -->
<!-- Title: name Pages: 1 -->
<svg width="862pt" height="180pt"
 viewBox="0.00 0.00 862.00 180.00" xmlns="http://www.w3.org/2000/svg" xmlns:xlink="http://www.w3.org/1999/xlink">
<g id="graph0" class="graph" transform="scale(1 1) rotate(0) translate(4 176)">
<title>name</title>
<!-- F -->
<g id="node1" class="node"><title>F</title>
<ellipse fill="none" stroke="black" cx="419" cy="-86" rx="27" ry="18"/>
<text text-anchor="middle" x="419" y="-82.3" font-family="Times,serif" font-size="14.00">研究</text>
</g>
<!-- I -->
<g id="node2" class="node"><title>I</title>
<ellipse fill="none" stroke="black" cx="758" cy="-86" rx="27" ry="18"/>
<text text-anchor="middle" x="758" y="-82.3" font-family="Times,serif" font-size="14.00">生物学</text>
</g>
<!-- F&#45;&gt;I -->
<g id="edge11" class="edge"><title>F&#45;&gt;I</title>
<path fill="none" stroke="black" d="M440.689,-96.9669C446.8,-99.6557 453.545,-102.259 460,-104 530.179,-122.934 549.928,-118.382 622.5,-122.5 642.69,-123.646 694.459,-129.31 713.5,-122.5 721.703,-119.566 729.48,-114.397 736.17,-108.855"/>
<polygon fill="black" stroke="black" points="738.934,-111.076 744.013,-101.777 734.244,-105.879 738.934,-111.076"/>
<text text-anchor="middle" x="668" y="-116.3" font-family="Times,serif" font-size="14.00">P(生物学|研究)</text>
</g>
<!-- C -->
<g id="node6" class="node"><title>C</title>
<ellipse fill="none" stroke="black" cx="397" cy="-18" rx="27" ry="18"/>
<text text-anchor="middle" x="397" y="-14.3" font-family="Times,serif" font-size="14.00">生</text>
</g>
<!-- F&#45;&gt;C -->
<g id="edge10" class="edge"><title>F&#45;&gt;C</title>
<path fill="none" stroke="black" d="M409.18,-69.2219C407.609,-66.237 406.131,-63.0823 405,-60 403.383,-55.5914 402.072,-50.79 401.016,-46.0766"/>
<polygon fill="black" stroke="black" points="404.419,-45.2426 399.091,-36.0853 397.546,-46.5669 404.419,-45.2426"/>
<text text-anchor="middle" x="436.5" y="-48.3" font-family="Times,serif" font-size="14.00">P(生|研究)</text>
</g>
<!-- H -->
<g id="node11" class="node"><title>H</title>
<ellipse fill="none" stroke="black" cx="534" cy="-154" rx="27" ry="18"/>
<text text-anchor="middle" x="534" y="-150.3" font-family="Times,serif" font-size="14.00">生物</text>
</g>
<!-- F&#45;&gt;H -->
<g id="edge1" class="edge"><title>F&#45;&gt;H</title>
<path fill="none" stroke="black" d="M438.896,-98.4186C457.287,-108.973 484.818,-124.774 505.534,-136.663"/>
<polygon fill="black" stroke="black" points="503.815,-139.712 514.231,-141.654 507.3,-133.641 503.815,-139.712"/>
<text text-anchor="middle" x="529.5" y="-116.3" font-family="Times,serif" font-size="14.00">P(生物|研究)</text>
</g>
<!-- END -->
<g id="node9" class="node"><title>END</title>
<ellipse fill="none" stroke="black" cx="771" cy="-18" rx="27" ry="18"/>
<text text-anchor="middle" x="771" y="-14.3" font-family="Times,serif" font-size="14.00">&lt;/s&gt;</text>
</g>
<!-- I&#45;&gt;END -->
<g id="edge13" class="edge"><title>I&#45;&gt;END</title>
<path fill="none" stroke="black" d="M761.348,-68.0034C762.657,-61.3576 764.191,-53.5693 765.646,-46.1826"/>
<polygon fill="black" stroke="black" points="769.12,-46.6563 767.618,-36.1684 762.252,-45.3035 769.12,-46.6563"/>
<text text-anchor="middle" x="810" y="-48.3" font-family="Times,serif" font-size="14.00">P(&lt;/s&gt;|生物学)</text>
</g>
<!-- START -->
<g id="node3" class="node"><title>START</title>
<ellipse fill="none" stroke="black" cx="27" cy="-18" rx="27" ry="18"/>
<text text-anchor="middle" x="27" y="-14.3" font-family="Times,serif" font-size="14.00">&lt;s&gt;</text>
</g>
<!-- START&#45;&gt;F -->
<g id="edge8" class="edge"><title>START&#45;&gt;F</title>
<path fill="none" stroke="black" d="M52.7508,-23.9066C71.1827,-27.3823 96.5971,-32.101 119,-36 214.002,-52.5339 326.224,-70.4287 382.684,-79.3183"/>
<polygon fill="black" stroke="black" points="382.464,-82.8266 392.886,-80.9221 383.551,-75.9115 382.464,-82.8266"/>
<text text-anchor="middle" x="294" y="-48.3" font-family="Times,serif" font-size="14.00">P(研究|&lt;s&gt;)</text>
</g>
<!-- A -->
<g id="node4" class="node"><title>A</title>
<ellipse fill="none" stroke="black" cx="155" cy="-18" rx="27" ry="18"/>
<text text-anchor="middle" x="155" y="-14.3" font-family="Times,serif" font-size="14.00">研</text>
</g>
<!-- START&#45;&gt;A -->
<g id="edge2" class="edge"><title>START&#45;&gt;A</title>
<path fill="none" stroke="black" d="M54.1455,-18C72.6432,-18 97.3717,-18 117.713,-18"/>
<polygon fill="black" stroke="black" points="117.894,-21.5001 127.894,-18 117.894,-14.5001 117.894,-21.5001"/>
<text text-anchor="middle" x="91" y="-24.8" font-family="Times,serif" font-size="14.00">P(研|&lt;s&gt;)</text>
</g>
<!-- G -->
<g id="node10" class="node"><title>G</title>
<ellipse fill="none" stroke="black" cx="246" cy="-154" rx="27" ry="18"/>
<text text-anchor="middle" x="246" y="-150.3" font-family="Times,serif" font-size="14.00">研究生</text>
</g>
<!-- START&#45;&gt;G -->
<g id="edge9" class="edge"><title>START&#45;&gt;G</title>
<path fill="none" stroke="black" d="M46.3912,-30.865C85.2353,-54.6326 172.721,-108.163 217.867,-135.786"/>
<polygon fill="black" stroke="black" points="216.209,-138.875 226.565,-141.108 219.862,-132.904 216.209,-138.875"/>
<text text-anchor="middle" x="208.5" y="-82.3" font-family="Times,serif" font-size="14.00">P(研究生|&lt;s&gt;)</text>
</g>
<!-- B -->
<g id="node5" class="node"><title>B</title>
<ellipse fill="none" stroke="black" cx="276" cy="-18" rx="27" ry="18"/>
<text text-anchor="middle" x="276" y="-14.3" font-family="Times,serif" font-size="14.00">究</text>
</g>
<!-- A&#45;&gt;B -->
<g id="edge3" class="edge"><title>A&#45;&gt;B</title>
<path fill="none" stroke="black" d="M182.155,-18C198.891,-18 220.578,-18 238.887,-18"/>
<polygon fill="black" stroke="black" points="238.936,-21.5001 248.936,-18 238.936,-14.5001 238.936,-21.5001"/>
<text text-anchor="middle" x="215.5" y="-24.8" font-family="Times,serif" font-size="14.00">P(究|研)</text>
</g>
<!-- B&#45;&gt;C -->
<g id="edge4" class="edge"><title>B&#45;&gt;C</title>
<path fill="none" stroke="black" d="M303.155,-18C319.891,-18 341.578,-18 359.887,-18"/>
<polygon fill="black" stroke="black" points="359.936,-21.5001 369.936,-18 359.936,-14.5001 359.936,-21.5001"/>
<text text-anchor="middle" x="336.5" y="-24.8" font-family="Times,serif" font-size="14.00">P(生|究)</text>
</g>
<!-- D -->
<g id="node7" class="node"><title>D</title>
<ellipse fill="none" stroke="black" cx="518" cy="-18" rx="27" ry="18"/>
<text text-anchor="middle" x="518" y="-14.3" font-family="Times,serif" font-size="14.00">物</text>
</g>
<!-- C&#45;&gt;D -->
<g id="edge5" class="edge"><title>C&#45;&gt;D</title>
<path fill="none" stroke="black" d="M424.155,-18C440.891,-18 462.578,-18 480.887,-18"/>
<polygon fill="black" stroke="black" points="480.936,-21.5001 490.936,-18 480.936,-14.5001 480.936,-21.5001"/>
<text text-anchor="middle" x="457.5" y="-24.8" font-family="Times,serif" font-size="14.00">P(物|生)</text>
</g>
<!-- E -->
<g id="node8" class="node"><title>E</title>
<ellipse fill="none" stroke="black" cx="639" cy="-18" rx="27" ry="18"/>
<text text-anchor="middle" x="639" y="-14.3" font-family="Times,serif" font-size="14.00">学</text>
</g>
<!-- D&#45;&gt;E -->
<g id="edge6" class="edge"><title>D&#45;&gt;E</title>
<path fill="none" stroke="black" d="M545.155,-18C561.891,-18 583.578,-18 601.887,-18"/>
<polygon fill="black" stroke="black" points="601.936,-21.5001 611.936,-18 601.936,-14.5001 601.936,-21.5001"/>
<text text-anchor="middle" x="578.5" y="-24.8" font-family="Times,serif" font-size="14.00">P(学|物)</text>
</g>
<!-- E&#45;&gt;END -->
<g id="edge7" class="edge"><title>E&#45;&gt;END</title>
<path fill="none" stroke="black" d="M666.031,-18C685.477,-18 711.954,-18 733.451,-18"/>
<polygon fill="black" stroke="black" points="733.552,-21.5001 743.552,-18 733.552,-14.5001 733.552,-21.5001"/>
<text text-anchor="middle" x="705" y="-24.8" font-family="Times,serif" font-size="14.00">P(&lt;/s&gt;|学)</text>
</g>
<!-- G&#45;&gt;D -->
<g id="edge12" class="edge"><title>G&#45;&gt;D</title>
<path fill="none" stroke="black" d="M273.044,-152.476C315.25,-150.457 397.857,-141.571 455,-104 477.423,-89.2572 494.77,-63.6589 505.533,-44.3965"/>
<polygon fill="black" stroke="black" points="508.648,-45.9929 510.281,-35.5246 502.477,-42.69 508.648,-45.9929"/>
<text text-anchor="middle" x="528.5" y="-82.3" font-family="Times,serif" font-size="14.00">P(物|研究生)</text>
</g>
<!-- H&#45;&gt;E -->
<g id="edge14" class="edge"><title>H&#45;&gt;E</title>
<path fill="none" stroke="black" d="M554.184,-142.039C560.336,-138.115 566.832,-133.329 572,-128 596.056,-103.193 615.617,-68.2841 627.262,-44.7117"/>
<polygon fill="black" stroke="black" points="630.431,-46.1984 631.616,-35.6701 624.124,-43.1614 630.431,-46.1984"/>
<text text-anchor="middle" x="646.5" y="-82.3" font-family="Times,serif" font-size="14.00">P(学|生物)</text>
</g>
</g>
</svg>
