<?xml version="1.0" encoding="UTF-8" standalone="no"?>
<!DOCTYPE svg PUBLIC "-//W3C//DTD SVG 1.1//EN"
 "http://www.w3.org/Graphics/SVG/1.1/DTD/svg11.dtd">
<!-- Generated by graphviz version 2.36.0 (20140111.2315)
 -->
<!-- Title: Dijkstra Pages: 1 -->
<svg width="548pt" height="90pt"
 viewBox="0.00 0.00 548.00 90.00" xmlns="http://www.w3.org/2000/svg" xmlns:xlink="http://www.w3.org/1999/xlink">
<g id="graph0" class="graph" transform="scale(1 1) rotate(0) translate(4 86)">
<title>Dijkstra</title>
<!-- A -->
<g id="node1" class="node"><title>A</title>
<ellipse fill="none" stroke="black" cx="18" cy="-41" rx="18" ry="18"/>
<text text-anchor="middle" x="18" y="-37.3" font-family="Times,serif" font-size="14.00" fill="#333333">0</text>
</g>
<!-- B -->
<g id="node2" class="node"><title>B</title>
<ellipse fill="none" stroke="black" cx="90" cy="-41" rx="18" ry="18"/>
<text text-anchor="middle" x="90" y="-37.3" font-family="Times,serif" font-size="14.00" fill="#333333">1</text>
</g>
<!-- A&#45;&gt;B -->
<g id="edge1" class="edge"><title>A&#45;&gt;B</title>
<path fill="none" stroke="black" d="M36.3034,-41C44.0173,-41 53.2875,-41 61.8876,-41"/>
<polygon fill="black" stroke="black" points="61.8957,-44.5001 71.8957,-41 61.8956,-37.5001 61.8957,-44.5001"/>
<text text-anchor="middle" x="68.3957" y="-29.8" font-family="Times,serif" font-size="14.00">1</text>
<text text-anchor="middle" x="43.8034" y="-29.8" font-family="Times,serif" font-size="14.00">他</text>
</g>
<!-- C -->
<g id="node3" class="node"><title>C</title>
<ellipse fill="none" stroke="black" cx="162" cy="-41" rx="18" ry="18"/>
<text text-anchor="middle" x="162" y="-37.3" font-family="Times,serif" font-size="14.00" fill="#333333">2</text>
</g>
<!-- B&#45;&gt;C -->
<g id="edge2" class="edge"><title>B&#45;&gt;C</title>
<path fill="none" stroke="black" d="M108.303,-41C116.017,-41 125.288,-41 133.888,-41"/>
<polygon fill="black" stroke="black" points="133.896,-44.5001 143.896,-41 133.896,-37.5001 133.896,-44.5001"/>
<text text-anchor="middle" x="140.396" y="-29.8" font-family="Times,serif" font-size="14.00">1</text>
<text text-anchor="middle" x="115.803" y="-29.8" font-family="Times,serif" font-size="14.00">说</text>
</g>
<!-- D -->
<g id="node4" class="node"><title>D</title>
<ellipse fill="none" stroke="black" cx="234" cy="-18" rx="18" ry="18"/>
<text text-anchor="middle" x="234" y="-14.3" font-family="Times,serif" font-size="14.00" fill="#333333">3</text>
</g>
<!-- C&#45;&gt;D -->
<g id="edge3" class="edge"><title>C&#45;&gt;D</title>
<path fill="none" stroke="black" d="M179.235,-35.6655C187.422,-32.9758 197.552,-29.6472 206.805,-26.607"/>
<polygon fill="black" stroke="black" points="207.959,-29.912 216.367,-23.4653 205.774,-23.2617 207.959,-29.912"/>
<text text-anchor="middle" x="212.867" y="-27.2653" font-family="Times,serif" font-size="14.00">1</text>
<text text-anchor="middle" x="186.735" y="-24.4655" font-family="Times,serif" font-size="14.00">的</text>
</g>
<!-- E -->
<g id="node5" class="node"><title>E</title>
<ellipse fill="none" stroke="black" cx="306" cy="-64" rx="18" ry="18"/>
<text text-anchor="middle" x="306" y="-60.3" font-family="Times,serif" font-size="14.00" fill="#333333">4</text>
</g>
<!-- C&#45;&gt;E -->
<g id="edge10" class="edge"><title>C&#45;&gt;E</title>
<path fill="none" stroke="black" d="M179.847,-43.7287C204.08,-47.6538 249.035,-54.9353 277.954,-59.6193"/>
<polygon fill="black" stroke="black" points="277.744,-63.1308 288.175,-61.2748 278.863,-56.2209 277.744,-63.1308"/>
<text text-anchor="middle" x="284.675" y="-50.0748" font-family="Times,serif" font-size="14.00">1</text>
<text text-anchor="middle" x="194.347" y="-47.5287" font-family="Times,serif" font-size="14.00">的确</text>
</g>
<!-- D&#45;&gt;E -->
<g id="edge4" class="edge"><title>D&#45;&gt;E</title>
<path fill="none" stroke="black" d="M249.504,-27.5312C258.89,-33.699 271.312,-41.8619 282.023,-48.901"/>
<polygon fill="black" stroke="black" points="280.235,-51.9141 290.515,-54.481 284.08,-46.0642 280.235,-51.9141"/>
<text text-anchor="middle" x="294.015" y="-43.281" font-family="Times,serif" font-size="14.00">1</text>
<text text-anchor="middle" x="257.004" y="-31.3312" font-family="Times,serif" font-size="14.00">确</text>
</g>
<!-- F -->
<g id="node6" class="node"><title>F</title>
<ellipse fill="none" stroke="black" cx="378" cy="-18" rx="18" ry="18"/>
<text text-anchor="middle" x="378" y="-14.3" font-family="Times,serif" font-size="14.00" fill="#333333">5</text>
</g>
<!-- D&#45;&gt;F -->
<g id="edge8" class="edge"><title>D&#45;&gt;F</title>
<path fill="none" stroke="black" d="M252.129,-18C276.33,-18 320.789,-18 349.607,-18"/>
<polygon fill="black" stroke="black" points="349.811,-21.5001 359.811,-18 349.811,-14.5001 349.811,-21.5001"/>
<text text-anchor="middle" x="356.311" y="-6.8" font-family="Times,serif" font-size="14.00">1</text>
<text text-anchor="middle" x="266.629" y="-6.8" font-family="Times,serif" font-size="14.00">确实</text>
</g>
<!-- E&#45;&gt;F -->
<g id="edge5" class="edge"><title>E&#45;&gt;F</title>
<path fill="none" stroke="black" d="M321.504,-54.4688C330.89,-48.301 343.312,-40.1381 354.023,-33.099"/>
<polygon fill="black" stroke="black" points="356.08,-35.9358 362.515,-27.519 352.235,-30.0859 356.08,-35.9358"/>
<text text-anchor="middle" x="359.015" y="-31.319" font-family="Times,serif" font-size="14.00">1</text>
<text text-anchor="middle" x="329.004" y="-43.2688" font-family="Times,serif" font-size="14.00">实</text>
</g>
<!-- G -->
<g id="node7" class="node"><title>G</title>
<ellipse fill="none" stroke="black" cx="450" cy="-64" rx="18" ry="18"/>
<text text-anchor="middle" x="450" y="-60.3" font-family="Times,serif" font-size="14.00" fill="#333333">6</text>
</g>
<!-- E&#45;&gt;G -->
<g id="edge11" class="edge"><title>E&#45;&gt;G</title>
<path fill="none" stroke="black" d="M324.129,-64C348.33,-64 392.789,-64 421.607,-64"/>
<polygon fill="black" stroke="black" points="421.811,-67.5001 431.811,-64 421.811,-60.5001 421.811,-67.5001"/>
<text text-anchor="middle" x="428.311" y="-52.8" font-family="Times,serif" font-size="14.00">1</text>
<text text-anchor="middle" x="338.629" y="-67.8" font-family="Times,serif" font-size="14.00">实在</text>
</g>
<!-- F&#45;&gt;G -->
<g id="edge6" class="edge"><title>F&#45;&gt;G</title>
<path fill="none" stroke="black" d="M393.504,-27.5312C402.89,-33.699 415.312,-41.8619 426.023,-48.901"/>
<polygon fill="black" stroke="black" points="424.235,-51.9141 434.515,-54.481 428.08,-46.0642 424.235,-51.9141"/>
<text text-anchor="middle" x="431.015" y="-43.281" font-family="Times,serif" font-size="14.00">1</text>
<text text-anchor="middle" x="401.004" y="-31.3312" font-family="Times,serif" font-size="14.00">在</text>
</g>
<!-- H -->
<g id="node8" class="node"><title>H</title>
<ellipse fill="none" stroke="black" cx="522" cy="-41" rx="18" ry="18"/>
<text text-anchor="middle" x="522" y="-37.3" font-family="Times,serif" font-size="14.00" fill="#333333">7</text>
</g>
<!-- F&#45;&gt;H -->
<g id="edge9" class="edge"><title>F&#45;&gt;H</title>
<path fill="none" stroke="black" d="M395.847,-20.7287C420.08,-24.6538 465.035,-31.9353 493.954,-36.6193"/>
<polygon fill="black" stroke="black" points="493.744,-40.1308 504.175,-38.2748 494.863,-33.2209 493.744,-40.1308"/>
<text text-anchor="middle" x="500.675" y="-27.0748" font-family="Times,serif" font-size="14.00">1</text>
<text text-anchor="middle" x="410.347" y="-9.52872" font-family="Times,serif" font-size="14.00">在理</text>
</g>
<!-- G&#45;&gt;H -->
<g id="edge7" class="edge"><title>G&#45;&gt;H</title>
<path fill="none" stroke="black" d="M467.235,-58.6655C475.422,-55.9758 485.552,-52.6472 494.805,-49.607"/>
<polygon fill="black" stroke="black" points="495.959,-52.912 504.367,-46.4653 493.774,-46.2617 495.959,-52.912"/>
<text text-anchor="middle" x="500.867" y="-50.2653" font-family="Times,serif" font-size="14.00">1</text>
<text text-anchor="middle" x="474.735" y="-47.4655" font-family="Times,serif" font-size="14.00">理</text>
</g>
</g>
</svg>
