<?xml version="1.0" encoding="UTF-8" standalone="no"?>
<!DOCTYPE svg PUBLIC "-//W3C//DTD SVG 1.1//EN"
 "http://www.w3.org/Graphics/SVG/1.1/DTD/svg11.dtd">
<!-- Generated by graphviz version 2.36.0 (20140111.2315)
 -->
<!-- Title: Dijkstra Pages: 1 -->
<svg width="422pt" height="114pt"
 viewBox="0.00 0.00 422.00 114.00" xmlns="http://www.w3.org/2000/svg" xmlns:xlink="http://www.w3.org/1999/xlink">
<g id="graph0" class="graph" transform="scale(1 1) rotate(0) translate(4 110)">
<title>Dijkstra</title>
<!-- A -->
<g id="node1" class="node"><title>A</title>
<ellipse fill="none" stroke="black" cx="18" cy="-76" rx="18" ry="18"/>
<text text-anchor="middle" x="18" y="-72.3" font-family="Times,serif" font-size="14.00" fill="#333333">0</text>
</g>
<!-- B -->
<g id="node2" class="node"><title>B</title>
<ellipse fill="none" stroke="black" cx="72" cy="-76" rx="18" ry="18"/>
<text text-anchor="middle" x="72" y="-72.3" font-family="Times,serif" font-size="14.00" fill="#333333">1</text>
</g>
<!-- A&#45;&gt;B -->
<g id="edge1" class="edge"><title>A&#45;&gt;B</title>
<path fill="none" stroke="black" d="M36.2819,-76C36.2819,-76 43.7369,-76 43.7369,-76"/>
<polygon fill="black" stroke="black" points="43.7369,-79.5001 53.7369,-76 43.7369,-72.5001 43.7369,-79.5001"/>
<text text-anchor="middle" x="43.7594" y="-64.8" font-family="Times,serif" font-size="14.00">他</text>
<text text-anchor="middle" x="43.7594" y="-49.8" font-family="Times,serif" font-size="14.00">1</text>
</g>
<!-- C -->
<g id="node3" class="node"><title>C</title>
<ellipse fill="none" stroke="black" cx="126" cy="-76" rx="18" ry="18"/>
<text text-anchor="middle" x="126" y="-72.3" font-family="Times,serif" font-size="14.00" fill="#333333">2</text>
</g>
<!-- B&#45;&gt;C -->
<g id="edge2" class="edge"><title>B&#45;&gt;C</title>
<path fill="none" stroke="black" d="M90.2819,-76C90.2819,-76 97.7369,-76 97.7369,-76"/>
<polygon fill="black" stroke="black" points="97.7369,-79.5001 107.737,-76 97.7369,-72.5001 97.7369,-79.5001"/>
<text text-anchor="middle" x="97.7594" y="-64.8" font-family="Times,serif" font-size="14.00">说</text>
<text text-anchor="middle" x="97.7594" y="-49.8" font-family="Times,serif" font-size="14.00">1</text>
</g>
<!-- D -->
<g id="node4" class="node"><title>D</title>
<ellipse fill="none" stroke="black" cx="180" cy="-76" rx="18" ry="18"/>
<text text-anchor="middle" x="180" y="-72.3" font-family="Times,serif" font-size="14.00" fill="#333333">3</text>
</g>
<!-- C&#45;&gt;D -->
<g id="edge3" class="edge"><title>C&#45;&gt;D</title>
<path fill="none" stroke="black" d="M144.282,-76C144.282,-76 151.737,-76 151.737,-76"/>
<polygon fill="black" stroke="black" points="151.737,-79.5001 161.737,-76 151.737,-72.5001 151.737,-79.5001"/>
<text text-anchor="middle" x="151.759" y="-64.8" font-family="Times,serif" font-size="14.00">的</text>
<text text-anchor="middle" x="151.759" y="-49.8" font-family="Times,serif" font-size="14.00">1</text>
</g>
<!-- E -->
<g id="node5" class="node"><title>E</title>
<ellipse fill="none" stroke="black" cx="234" cy="-76" rx="18" ry="18"/>
<text text-anchor="middle" x="234" y="-72.3" font-family="Times,serif" font-size="14.00" fill="#333333">4</text>
</g>
<!-- C&#45;&gt;E -->
<g id="edge10" class="edge"><title>C&#45;&gt;E</title>
<path fill="none" stroke="black" d="M126,-57.8196C126,-44.9618 126,-30 126,-30 126,-30 228,-30 228,-30 228,-30 228,-48.8713 228,-48.8713"/>
<polygon fill="black" stroke="black" points="224.5,-48.8713 228,-58.8713 231.5,-48.8713 224.5,-48.8713"/>
<text text-anchor="middle" x="158.026" y="-18.8" font-family="Times,serif" font-size="14.00">的确</text>
<text text-anchor="middle" x="158.026" y="-3.8" font-family="Times,serif" font-size="14.00">1</text>
</g>
<!-- D&#45;&gt;E -->
<g id="edge4" class="edge"><title>D&#45;&gt;E</title>
<path fill="none" stroke="black" d="M198.282,-76C198.282,-76 205.737,-76 205.737,-76"/>
<polygon fill="black" stroke="black" points="205.737,-79.5001 215.737,-76 205.737,-72.5001 205.737,-79.5001"/>
<text text-anchor="middle" x="205.759" y="-64.8" font-family="Times,serif" font-size="14.00">确</text>
<text text-anchor="middle" x="205.759" y="-49.8" font-family="Times,serif" font-size="14.00">1</text>
</g>
<!-- F -->
<g id="node6" class="node"><title>F</title>
<ellipse fill="none" stroke="black" cx="288" cy="-76" rx="18" ry="18"/>
<text text-anchor="middle" x="288" y="-72.3" font-family="Times,serif" font-size="14.00" fill="#333333">5</text>
</g>
<!-- D&#45;&gt;F -->
<g id="edge8" class="edge"><title>D&#45;&gt;F</title>
<path fill="none" stroke="black" d="M180,-57.8701C180,-47.6855 180,-37 180,-37 180,-37 282,-37 282,-37 282,-37 282,-48.7805 282,-48.7805"/>
<polygon fill="black" stroke="black" points="278.5,-48.7805 282,-58.7805 285.5,-48.7805 278.5,-48.7805"/>
<text text-anchor="middle" x="211.955" y="-25.8" font-family="Times,serif" font-size="14.00">确实</text>
<text text-anchor="middle" x="211.955" y="-10.8" font-family="Times,serif" font-size="14.00">1</text>
</g>
<!-- E&#45;&gt;F -->
<g id="edge5" class="edge"><title>E&#45;&gt;F</title>
<path fill="none" stroke="black" d="M252.282,-76C252.282,-76 259.737,-76 259.737,-76"/>
<polygon fill="black" stroke="black" points="259.737,-79.5001 269.737,-76 259.737,-72.5001 259.737,-79.5001"/>
<text text-anchor="middle" x="259.759" y="-64.8" font-family="Times,serif" font-size="14.00">实</text>
<text text-anchor="middle" x="259.759" y="-49.8" font-family="Times,serif" font-size="14.00">1</text>
</g>
<!-- G -->
<g id="node7" class="node"><title>G</title>
<ellipse fill="none" stroke="black" cx="342" cy="-76" rx="18" ry="18"/>
<text text-anchor="middle" x="342" y="-72.3" font-family="Times,serif" font-size="14.00" fill="#333333">6</text>
</g>
<!-- E&#45;&gt;G -->
<g id="edge11" class="edge"><title>E&#45;&gt;G</title>
<path fill="none" stroke="black" d="M240,-58.8758C240,-51.2676 240,-44 240,-44 240,-44 342,-44 342,-44 342,-44 342,-47.7566 342,-47.7566"/>
<polygon fill="black" stroke="black" points="338.5,-47.7566 342,-57.7566 345.5,-47.7566 338.5,-47.7566"/>
<text text-anchor="middle" x="270.94" y="-32.8" font-family="Times,serif" font-size="14.00">实在</text>
<text text-anchor="middle" x="270.94" y="-17.8" font-family="Times,serif" font-size="14.00">1</text>
</g>
<!-- F&#45;&gt;G -->
<g id="edge6" class="edge"><title>F&#45;&gt;G</title>
<path fill="none" stroke="black" d="M306.282,-76C306.282,-76 313.737,-76 313.737,-76"/>
<polygon fill="black" stroke="black" points="313.737,-79.5001 323.737,-76 313.737,-72.5001 313.737,-79.5001"/>
<text text-anchor="middle" x="313.759" y="-64.8" font-family="Times,serif" font-size="14.00">在</text>
<text text-anchor="middle" x="313.759" y="-49.8" font-family="Times,serif" font-size="14.00">1</text>
</g>
<!-- H -->
<g id="node8" class="node"><title>H</title>
<ellipse fill="none" stroke="black" cx="396" cy="-76" rx="18" ry="18"/>
<text text-anchor="middle" x="396" y="-72.3" font-family="Times,serif" font-size="14.00" fill="#333333">7</text>
</g>
<!-- F&#45;&gt;H -->
<g id="edge9" class="edge"><title>F&#45;&gt;H</title>
<path fill="none" stroke="black" d="M294,-58.9102C294,-54.5156 294,-51 294,-51 294,-51 396,-51 396,-51 396,-51 396,-51.6831 396,-51.6831"/>
<polygon fill="black" stroke="black" points="392.5,-47.8313 396,-57.8314 399.5,-47.8314 392.5,-47.8313"/>
<text text-anchor="middle" x="355.886" y="-39.8" font-family="Times,serif" font-size="14.00">在理</text>
<text text-anchor="middle" x="355.886" y="-24.8" font-family="Times,serif" font-size="14.00">1</text>
</g>
<!-- G&#45;&gt;H -->
<g id="edge7" class="edge"><title>G&#45;&gt;H</title>
<path fill="none" stroke="black" d="M360.282,-76C360.282,-76 367.737,-76 367.737,-76"/>
<polygon fill="black" stroke="black" points="367.737,-79.5001 377.737,-76 367.737,-72.5001 367.737,-79.5001"/>
<text text-anchor="middle" x="371.509" y="-94.8" font-family="Times,serif" font-size="14.00">理</text>
<text text-anchor="middle" x="371.509" y="-79.8" font-family="Times,serif" font-size="14.00">1</text>
</g>
</g>
</svg>
