<?xml version="1.0" encoding="UTF-8" standalone="no"?>
<!DOCTYPE svg PUBLIC "-//W3C//DTD SVG 1.1//EN"
 "http://www.w3.org/Graphics/SVG/1.1/DTD/svg11.dtd">
<!-- Generated by graphviz version 2.36.0 (20140111.2315)
 -->
<!-- Title: multi_seg Pages: 1 -->
<svg width="964pt" height="156pt"
 viewBox="0.00 0.00 964.00 156.00" xmlns="http://www.w3.org/2000/svg" xmlns:xlink="http://www.w3.org/1999/xlink">
<g id="graph0" class="graph" transform="scale(1 1) rotate(0) translate(4 152)">
<title>multi_seg</title>
<g id="clust1" class="cluster"><title>cluster_main</title>
<polygon fill="none" stroke="black" points="8,-46 8,-102 948,-102 948,-46 8,-46"/>
</g>
<!-- START -->
<g id="node1" class="node"><title>START</title>
<polygon fill="#ee0000" stroke="#bbbbbb" points="75.5,-92 16.5,-92 16.5,-56 75.5,-56 75.5,-92"/>
<text text-anchor="middle" x="46" y="-70.3" font-family="Times,serif" font-size="14.00" fill="#666666">START</text>
</g>
<!-- A -->
<g id="node2" class="node"><title>A</title>
<ellipse fill="#98fb98" stroke="#bbbbbb" cx="132" cy="-74" rx="20.2975" ry="20.2975"/>
<text text-anchor="middle" x="132" y="-70.3" font-family="Times,serif" font-size="14.00" fill="#666666">习</text>
</g>
<!-- START&#45;&gt;A -->
<g id="edge1" class="edge"><title>START&#45;&gt;A</title>
<path fill="none" stroke="black" d="M75.908,-74C84.2502,-74 93.3579,-74 101.722,-74"/>
<polygon fill="black" stroke="black" points="101.806,-77.5001 111.806,-74 101.806,-70.5001 101.806,-77.5001"/>
</g>
<!-- B -->
<g id="node3" class="node"><title>B</title>
<ellipse fill="#98fb98" stroke="#bbbbbb" cx="208" cy="-74" rx="20.2975" ry="20.2975"/>
<text text-anchor="middle" x="208" y="-70.3" font-family="Times,serif" font-size="14.00" fill="#666666">主</text>
</g>
<!-- A&#45;&gt;B -->
<g id="edge2" class="edge"><title>A&#45;&gt;B</title>
<path fill="none" stroke="black" d="M152.443,-74C160.09,-74 169.041,-74 177.455,-74"/>
<polygon fill="black" stroke="black" points="177.687,-77.5001 187.687,-74 177.687,-70.5001 177.687,-77.5001"/>
</g>
<!-- BC -->
<g id="node12" class="node"><title>BC</title>
<ellipse fill="#98fb98" stroke="black" cx="293" cy="-18" rx="29.4969" ry="18"/>
<text text-anchor="middle" x="293" y="-14.3" font-family="Times,serif" font-size="14.00" fill="#666666">主席</text>
</g>
<!-- A&#45;&gt;BC -->
<g id="edge11" class="edge"><title>A&#45;&gt;BC</title>
<path fill="none" stroke="black" d="M149.859,-63.8026C160.506,-57.6969 174.713,-50.1476 188,-45 209.626,-36.6216 234.776,-30.0129 254.926,-25.4312"/>
<polygon fill="black" stroke="black" points="255.95,-28.7899 264.963,-23.2214 254.444,-21.9536 255.95,-28.7899"/>
</g>
<!-- C -->
<g id="node4" class="node"><title>C</title>
<ellipse fill="#98fb98" stroke="#bbbbbb" cx="293" cy="-74" rx="20.2975" ry="20.2975"/>
<text text-anchor="middle" x="293" y="-70.3" font-family="Times,serif" font-size="14.00" fill="#666666">席</text>
</g>
<!-- B&#45;&gt;C -->
<g id="edge3" class="edge"><title>B&#45;&gt;C</title>
<path fill="none" stroke="black" d="M228.25,-74C238.339,-74 250.919,-74 262.231,-74"/>
<polygon fill="black" stroke="black" points="262.566,-77.5001 272.566,-74 262.566,-70.5001 262.566,-77.5001"/>
</g>
<!-- D -->
<g id="node5" class="node"><title>D</title>
<ellipse fill="#87ceeb" stroke="#bbbbbb" cx="378" cy="-74" rx="20.2975" ry="20.2975"/>
<text text-anchor="middle" x="378" y="-70.3" font-family="Times,serif" font-size="14.00" fill="#666666">说</text>
</g>
<!-- C&#45;&gt;D -->
<g id="edge4" class="edge"><title>C&#45;&gt;D</title>
<path fill="none" stroke="black" d="M313.25,-74C323.339,-74 335.919,-74 347.231,-74"/>
<polygon fill="black" stroke="black" points="347.566,-77.5001 357.566,-74 347.566,-70.5001 347.566,-77.5001"/>
</g>
<!-- E -->
<g id="node6" class="node"><title>E</title>
<ellipse fill="#87ceeb" stroke="#bbbbbb" cx="463" cy="-74" rx="20.2975" ry="20.2975"/>
<text text-anchor="middle" x="463" y="-70.3" font-family="Times,serif" font-size="14.00" fill="#666666">的</text>
</g>
<!-- D&#45;&gt;E -->
<g id="edge5" class="edge"><title>D&#45;&gt;E</title>
<path fill="none" stroke="black" d="M398.25,-74C408.339,-74 420.919,-74 432.231,-74"/>
<polygon fill="black" stroke="black" points="432.566,-77.5001 442.566,-74 432.566,-70.5001 432.566,-77.5001"/>
</g>
<!-- EF -->
<g id="node14" class="node"><title>EF</title>
<ellipse fill="lightgrey" stroke="black" cx="463" cy="-18" rx="29.4969" ry="18"/>
<text text-anchor="middle" x="463" y="-14.3" font-family="Times,serif" font-size="14.00" fill="#666666">的确</text>
</g>
<!-- D&#45;&gt;EF -->
<g id="edge13" class="edge"><title>D&#45;&gt;EF</title>
<path fill="none" stroke="black" d="M395.003,-63.2026C406.026,-55.7654 420.968,-45.6844 433.943,-36.9298"/>
<polygon fill="black" stroke="black" points="436.208,-39.6239 442.54,-31.1295 432.293,-33.8212 436.208,-39.6239"/>
</g>
<!-- F -->
<g id="node7" class="node"><title>F</title>
<ellipse fill="#32cd32" stroke="#bbbbbb" cx="557" cy="-74" rx="20.2975" ry="20.2975"/>
<text text-anchor="middle" x="557" y="-70.3" font-family="Times,serif" font-size="14.00" fill="#666666">确</text>
</g>
<!-- E&#45;&gt;F -->
<g id="edge6" class="edge"><title>E&#45;&gt;F</title>
<path fill="none" stroke="black" d="M483.511,-74C496.036,-74 512.537,-74 526.63,-74"/>
<polygon fill="black" stroke="black" points="526.833,-77.5001 536.833,-74 526.833,-70.5001 526.833,-77.5001"/>
</g>
<!-- FG -->
<g id="node15" class="node"><title>FG</title>
<ellipse fill="#32cd32" stroke="black" cx="557" cy="-130" rx="29.4969" ry="18"/>
<text text-anchor="middle" x="557" y="-126.3" font-family="Times,serif" font-size="14.00" fill="#666666">确实</text>
</g>
<!-- E&#45;&gt;FG -->
<g id="edge16" class="edge"><title>E&#45;&gt;FG</title>
<path fill="none" stroke="black" d="M480.874,-84.2713C493.797,-92.137 511.928,-103.174 527.141,-112.434"/>
<polygon fill="black" stroke="black" points="525.338,-115.434 535.7,-117.643 528.978,-109.454 525.338,-115.434"/>
</g>
<!-- G -->
<g id="node8" class="node"><title>G</title>
<ellipse fill="#32cd32" stroke="#bbbbbb" cx="651" cy="-74" rx="20.2975" ry="20.2975"/>
<text text-anchor="middle" x="651" y="-70.3" font-family="Times,serif" font-size="14.00" fill="#666666">实</text>
</g>
<!-- F&#45;&gt;G -->
<g id="edge7" class="edge"><title>F&#45;&gt;G</title>
<path fill="none" stroke="black" d="M577.511,-74C590.036,-74 606.537,-74 620.63,-74"/>
<polygon fill="black" stroke="black" points="620.833,-77.5001 630.833,-74 620.833,-70.5001 620.833,-77.5001"/>
</g>
<!-- GH -->
<g id="node16" class="node"><title>GH</title>
<ellipse fill="lightgrey" stroke="black" cx="651" cy="-18" rx="29.4969" ry="18"/>
<text text-anchor="middle" x="651" y="-14.3" font-family="Times,serif" font-size="14.00" fill="#666666">实在</text>
</g>
<!-- F&#45;&gt;GH -->
<g id="edge19" class="edge"><title>F&#45;&gt;GH</title>
<path fill="none" stroke="black" d="M574.874,-63.7287C587.797,-55.863 605.928,-44.8262 621.141,-35.5661"/>
<polygon fill="black" stroke="black" points="622.978,-38.5458 629.7,-30.3566 619.338,-32.5664 622.978,-38.5458"/>
</g>
<!-- H -->
<g id="node9" class="node"><title>H</title>
<ellipse fill="#87ceeb" stroke="#bbbbbb" cx="736" cy="-74" rx="20.2975" ry="20.2975"/>
<text text-anchor="middle" x="736" y="-70.3" font-family="Times,serif" font-size="14.00" fill="#666666">在</text>
</g>
<!-- G&#45;&gt;H -->
<g id="edge8" class="edge"><title>G&#45;&gt;H</title>
<path fill="none" stroke="black" d="M671.25,-74C681.339,-74 693.919,-74 705.231,-74"/>
<polygon fill="black" stroke="black" points="705.566,-77.5001 715.566,-74 705.566,-70.5001 705.566,-77.5001"/>
</g>
<!-- I -->
<g id="node10" class="node"><title>I</title>
<ellipse fill="#87ceeb" stroke="#bbbbbb" cx="821" cy="-74" rx="20.2975" ry="20.2975"/>
<text text-anchor="middle" x="821" y="-70.3" font-family="Times,serif" font-size="14.00" fill="#666666">理</text>
</g>
<!-- H&#45;&gt;I -->
<g id="edge9" class="edge"><title>H&#45;&gt;I</title>
<path fill="none" stroke="black" d="M756.25,-74C766.339,-74 778.919,-74 790.231,-74"/>
<polygon fill="black" stroke="black" points="790.566,-77.5001 800.566,-74 790.566,-70.5001 790.566,-77.5001"/>
</g>
<!-- END -->
<g id="node11" class="node"><title>END</title>
<polygon fill="#ee0000" stroke="#bbbbbb" points="940,-93 886,-93 886,-57 940,-57 940,-93"/>
<text text-anchor="middle" x="913" y="-71.3" font-family="Times,serif" font-size="14.00" fill="#666666">END</text>
</g>
<!-- I&#45;&gt;END -->
<g id="edge10" class="edge"><title>I&#45;&gt;END</title>
<path fill="none" stroke="black" d="M841.529,-74.217C851.424,-74.3269 863.77,-74.4641 875.351,-74.5928"/>
<polygon fill="black" stroke="black" points="875.641,-78.0961 885.679,-74.7075 875.719,-71.0966 875.641,-78.0961"/>
</g>
<!-- BC&#45;&gt;D -->
<g id="edge12" class="edge"><title>BC&#45;&gt;D</title>
<path fill="none" stroke="black" d="M313.25,-30.9883C324.888,-38.8402 339.84,-48.9283 352.338,-57.3609"/>
<polygon fill="black" stroke="black" points="350.676,-60.4612 360.923,-63.1528 354.591,-54.6584 350.676,-60.4612"/>
</g>
<!-- HI -->
<g id="node13" class="node"><title>HI</title>
<ellipse fill="#87ceeb" stroke="black" cx="821" cy="-130" rx="29.4969" ry="18"/>
<text text-anchor="middle" x="821" y="-126.3" font-family="Times,serif" font-size="14.00" fill="#666666">在理</text>
</g>
<!-- HI&#45;&gt;END -->
<g id="edge18" class="edge"><title>HI&#45;&gt;END</title>
<path fill="none" stroke="black" d="M842.422,-117.52C852.672,-111.256 865.375,-103.493 877.111,-96.3212"/>
<polygon fill="black" stroke="black" points="879.132,-99.1878 885.84,-90.9868 875.482,-93.2148 879.132,-99.1878"/>
</g>
<!-- EF&#45;&gt;GH -->
<g id="edge14" class="edge"><title>EF&#45;&gt;GH</title>
<path fill="none" stroke="black" d="M492.249,-18C524.068,-18 575.962,-18 611.48,-18"/>
<polygon fill="black" stroke="black" points="611.485,-21.5001 621.485,-18 611.485,-14.5001 611.485,-21.5001"/>
</g>
<!-- FG&#45;&gt;HI -->
<g id="edge17" class="edge"><title>FG&#45;&gt;HI</title>
<path fill="none" stroke="black" d="M586.288,-130C633.426,-130 728.116,-130 781.363,-130"/>
<polygon fill="black" stroke="black" points="781.433,-133.5 791.433,-130 781.433,-126.5 781.433,-133.5"/>
</g>
<!-- GH&#45;&gt;I -->
<g id="edge15" class="edge"><title>GH&#45;&gt;I</title>
<path fill="none" stroke="black" d="M678.88,-23.6442C700.106,-28.4188 730.322,-35.9244 756,-45 768.543,-49.433 782.013,-55.3518 793.345,-60.6861"/>
<polygon fill="black" stroke="black" points="792.147,-63.9933 802.676,-65.1712 795.179,-57.6843 792.147,-63.9933"/>
</g>
</g>
</svg>
